<?xml version="1.0" encoding="utf-8"?>
<svg xmlns="http://www.w3.org/2000/svg" fill="none" height="33" viewBox="0 0 126 33" width="126">
<path clip-rule="evenodd" d="M76.4846 17.3719C75.165 17.3719 74.0104 17.1598 73.0207 16.7356C72.031 16.2958 71.2613 15.6752 70.7114 14.8741C70.1773 14.0729 69.9103 13.1461 69.9103 12.0935V11.7636C69.9103 11.6537 69.9417 11.5673 70.0045 11.5044C70.0673 11.4416 70.1537 11.4102 70.2637 11.4102H73.9161C74.0261 11.4102 74.1125 11.4416 74.1753 11.5044C74.2382 11.5673 74.2696 11.6537 74.2696 11.7636V11.905C74.2696 12.3449 74.4974 12.7376 74.9529 13.0832C75.4242 13.4131 76.0448 13.578 76.8145 13.578C77.3958 13.578 77.8121 13.4602 78.0634 13.2246C78.3148 12.9732 78.4404 12.6983 78.4404 12.3998C78.4404 12.0542 78.2833 11.795 77.9692 11.6222C77.655 11.4494 77.0816 11.2374 76.249 10.986L75.5656 10.7975C74.0104 10.3262 72.7065 9.69784 71.654 8.91238C70.6015 8.12691 70.0752 6.98797 70.0752 5.49558C70.0752 4.5059 70.3423 3.63402 70.8764 2.87997C71.4105 2.11021 72.141 1.52111 73.0678 1.11266C74.0104 0.704218 75.0629 0.5 76.2254 0.5C77.4508 0.5 78.5583 0.727781 79.5479 1.18335C80.5533 1.63893 81.3388 2.28302 81.9044 3.11561C82.4856 3.94821 82.7762 4.89863 82.7762 5.96687V6.17894C82.7762 6.2889 82.7448 6.3753 82.682 6.43814C82.6191 6.50098 82.5327 6.53239 82.4228 6.53239H78.7703C78.6604 6.53239 78.574 6.50098 78.5111 6.43814C78.4483 6.3753 78.4169 6.2889 78.4169 6.17894V6.15537C78.4169 5.6841 78.2048 5.25994 77.7806 4.88292C77.3565 4.49018 76.7831 4.29382 76.0605 4.29382C75.5578 4.29382 75.1572 4.39592 74.8587 4.60015C74.5759 4.80437 74.4346 5.08713 74.4346 5.44846C74.4346 5.73122 74.5367 5.97472 74.7409 6.17894C74.9608 6.36745 75.2907 6.55597 75.7306 6.74447C76.1704 6.91728 76.8459 7.14507 77.7571 7.42783C77.8828 7.47497 78.4326 7.64777 79.4066 7.94624C80.3963 8.22901 81.221 8.75527 81.8808 9.52504C82.5406 10.2791 82.8705 11.1981 82.8705 12.282C82.8705 13.3346 82.6034 14.2457 82.0693 15.0155C81.5352 15.7695 80.789 16.3508 79.8307 16.7592C78.8725 17.1676 77.7571 17.3719 76.4846 17.3719ZM17.324 4.12886C17.324 4.23883 17.2926 4.32523 17.2298 4.38807C17.1669 4.45091 17.0805 4.48232 16.9706 4.48232H9.94849C9.86995 4.48232 9.83067 4.5216 9.83067 4.60015V6.81516C9.83067 6.89371 9.86995 6.93299 9.94849 6.93299H14.3078C14.4178 6.93299 14.5042 6.9644 14.567 7.02724C14.6299 7.09008 14.6613 7.17648 14.6613 7.28645V10.3498C14.6613 10.4597 14.6299 10.5461 14.567 10.609C14.5042 10.6718 14.4178 10.7032 14.3078 10.7032H9.94849C9.86995 10.7032 9.83067 10.7425 9.83067 10.8211V16.5943V16.8299V19.5205C12.4334 20.4318 14.3 22.9097 14.3 25.8235C14.3 29.5108 11.3108 32.5 7.62351 32.5C3.93618 32.5 0.947021 29.5108 0.947021 25.8235C0.947021 22.9155 2.80613 20.4418 5.40063 19.526V16.8299V16.5943V1.04198C5.40063 0.93201 5.43204 0.845608 5.49488 0.782769C5.55772 0.71993 5.64412 0.688517 5.75409 0.688517H16.9706C17.0805 0.688517 17.1669 0.71993 17.2298 0.782769C17.2926 0.845608 17.324 0.93201 17.324 1.04198V4.12886ZM25.007 17.3719C23.7345 17.3719 22.6034 17.1284 21.6137 16.6414C20.6398 16.1544 19.8857 15.4632 19.3516 14.5677C18.8175 13.6723 18.5504 12.6355 18.5504 11.4573V1.04198C18.5504 0.93201 18.5818 0.845608 18.6447 0.782769C18.7075 0.71993 18.7939 0.688517 18.9039 0.688517H22.627C22.737 0.688517 22.8234 0.71993 22.8862 0.782769C22.949 0.845608 22.9805 0.93201 22.9805 1.04198V11.4573C22.9805 12.1014 23.1611 12.6198 23.5224 13.0125C23.8995 13.3895 24.3943 13.578 25.007 13.578C25.6039 13.578 26.0831 13.3817 26.4444 12.9889C26.8214 12.5962 27.0099 12.0857 27.0099 11.4573V1.04198C27.0099 0.93201 27.0413 0.845608 27.1042 0.782769C27.167 0.71993 27.2534 0.688517 27.3634 0.688517H31.0865C31.1965 0.688517 31.2829 0.71993 31.3457 0.782769C31.4085 0.845608 31.44 0.93201 31.44 1.04198V11.4573C31.44 12.6355 31.1729 13.6723 30.6388 14.5677C30.1047 15.4632 29.3506 16.1544 28.3766 16.6414C27.4026 17.1284 26.2794 17.3719 25.007 17.3719ZM41.6555 16.9242C41.7183 17.097 41.8518 17.1834 42.0561 17.1834H46.0148C46.1091 17.1834 46.1876 17.1598 46.2505 17.1127C46.3133 17.0655 46.3447 17.0027 46.3447 16.9242C46.3447 16.9084 46.329 16.8535 46.2976 16.7592L43.305 10.5383C43.2735 10.4597 43.2971 10.4048 43.3756 10.3733C44.2711 10.012 44.9701 9.44649 45.4728 8.67673C45.9913 7.89126 46.2505 6.98012 46.2505 5.94329C46.2505 4.90648 46.0227 3.99533 45.5671 3.20986C45.1272 2.40868 44.4989 1.78817 43.682 1.34831C42.8808 0.908447 41.9461 0.688517 40.8778 0.688517H33.7379C33.628 0.688517 33.5416 0.71993 33.4787 0.782769C33.4159 0.845608 33.3845 0.93201 33.3845 1.04198V16.8299C33.3845 16.9399 33.4159 17.0263 33.4787 17.0891C33.5416 17.1519 33.628 17.1834 33.7379 17.1834H37.4611C37.571 17.1834 37.6574 17.1519 37.7203 17.0891C37.7831 17.0263 37.8145 16.9399 37.8145 16.8299V10.9624C37.8145 10.8839 37.8538 10.8446 37.9323 10.8446H38.922C38.9849 10.8446 39.032 10.876 39.0634 10.9389L41.6555 16.9242ZM37.8145 4.60015C37.8145 4.5216 37.8538 4.48232 37.9323 4.48232H40.1474C40.6501 4.48232 41.0585 4.62371 41.3727 4.90648C41.6869 5.17354 41.844 5.53486 41.844 5.99043C41.844 6.43029 41.6869 6.7916 41.3727 7.07437C41.0585 7.34144 40.6501 7.47497 40.1474 7.47497H37.9323C37.8538 7.47497 37.8145 7.43569 37.8145 7.35714V4.60015ZM57.3154 1.04198C57.3154 0.93201 57.3468 0.845608 57.4096 0.782769C57.4725 0.71993 57.5589 0.688517 57.6688 0.688517H61.392C61.5019 0.688517 61.5883 0.71993 61.6512 0.782769C61.714 0.845608 61.7454 0.93201 61.7454 1.04198V16.8299C61.7454 16.9399 61.714 17.0263 61.6512 17.0891C61.5883 17.1519 61.5019 17.1834 61.392 17.1834H57.8338C57.6453 17.1834 57.5039 17.1048 57.4096 16.9477L52.6026 8.93594C52.5712 8.8888 52.5397 8.8731 52.5083 8.8888C52.4769 8.8888 52.4612 8.92023 52.4612 8.98306L52.5083 16.8299C52.5083 16.9399 52.4769 17.0263 52.4141 17.0891C52.3512 17.1519 52.2648 17.1834 52.1549 17.1834H48.4317C48.3218 17.1834 48.2354 17.1519 48.1725 17.0891C48.1097 17.0263 48.0783 16.9399 48.0783 16.8299V1.04198C48.0783 0.93201 48.1097 0.845608 48.1725 0.782769C48.2354 0.71993 48.3218 0.688517 48.4317 0.688517H51.9899C52.1784 0.688517 52.3198 0.767056 52.4141 0.924148L57.1976 8.93594C57.229 8.98306 57.2604 9.00663 57.2918 9.00663C57.3232 8.99091 57.3389 8.95164 57.3389 8.8888L57.3154 1.04198ZM63.8788 17.0891C63.9417 17.1519 64.0281 17.1834 64.138 17.1834H67.8612C67.9711 17.1834 68.0575 17.1519 68.1204 17.0891C68.1832 17.0263 68.2146 16.9399 68.2146 16.8299V1.04198C68.2146 0.93201 68.1832 0.845608 68.1204 0.782769C68.0575 0.71993 67.9711 0.688517 67.8612 0.688517H64.138C64.0281 0.688517 63.9417 0.71993 63.8788 0.782769C63.816 0.845608 63.7846 0.93201 63.7846 1.04198V16.8299C63.7846 16.9399 63.816 17.0263 63.8788 17.0891ZM93.0477 0.782769C92.9849 0.845608 92.9535 0.93201 92.9535 1.04198V6.81516C92.9535 6.89371 92.9142 6.93299 92.8356 6.93299H89.1596C89.0811 6.93299 89.0418 6.89371 89.0418 6.81516V1.04198C89.0418 0.93201 89.0104 0.845608 88.9476 0.782769C88.8847 0.71993 88.7983 0.688517 88.6883 0.688517H84.9652C84.8553 0.688517 84.7689 0.71993 84.706 0.782769C84.6432 0.845608 84.6118 0.93201 84.6118 1.04198V16.8299C84.6118 16.9399 84.6432 17.0263 84.706 17.0891C84.7689 17.1519 84.8553 17.1834 84.9652 17.1834H88.6883C88.7983 17.1834 88.8847 17.1519 88.9476 17.0891C89.0104 17.0263 89.0418 16.9399 89.0418 16.8299V10.8446C89.0418 10.7661 89.0811 10.7268 89.1596 10.7268H92.8356C92.9142 10.7268 92.9535 10.7661 92.9535 10.8446V16.8299C92.9535 16.9399 92.9849 17.0263 93.0477 17.0891C93.1105 17.1519 93.197 17.1834 93.3069 17.1834H97.03C97.14 17.1834 97.2264 17.1519 97.2892 17.0891C97.3521 17.0263 97.3835 16.9399 97.3835 16.8299V1.04198C97.3835 0.93201 97.3521 0.845608 97.2892 0.782769C97.2264 0.71993 97.14 0.688517 97.03 0.688517H93.3069C93.197 0.688517 93.1105 0.71993 93.0477 0.782769ZM111.16 4.12886C111.16 4.23883 111.129 4.32523 111.066 4.38807C111.003 4.45091 110.917 4.48232 110.807 4.48232H103.761C103.683 4.48232 103.644 4.5216 103.644 4.60015V6.81516C103.644 6.89371 103.683 6.93299 103.761 6.93299H108.121C108.231 6.93299 108.317 6.9644 108.38 7.02724C108.443 7.09008 108.474 7.17648 108.474 7.28645V10.3498C108.474 10.4597 108.443 10.5461 108.38 10.609C108.317 10.6718 108.231 10.7032 108.121 10.7032H103.761C103.683 10.7032 103.644 10.7425 103.644 10.8211V13.2717C103.644 13.3503 103.683 13.3895 103.761 13.3895H110.807C110.917 13.3895 111.003 13.421 111.066 13.4838C111.129 13.5466 111.16 13.633 111.16 13.743V16.8299C111.16 16.9399 111.129 17.0263 111.066 17.0891C111.003 17.1519 110.917 17.1834 110.807 17.1834H99.567C99.457 17.1834 99.3706 17.1519 99.3078 17.0891C99.2449 17.0263 99.2135 16.9399 99.2135 16.8299V1.04198C99.2135 0.93201 99.2449 0.845608 99.3078 0.782769C99.3706 0.71993 99.457 0.688517 99.567 0.688517H110.807C110.917 0.688517 111.003 0.71993 111.066 0.782769C111.129 0.845608 111.16 0.93201 111.16 1.04198V4.12886ZM112.943 17.0891C113.006 17.1519 113.092 17.1834 113.202 17.1834H119.258C120.531 17.1834 121.654 16.9634 122.628 16.5236C123.618 16.0837 124.379 15.4632 124.914 14.662C125.448 13.8608 125.715 12.934 125.715 11.8814V5.99043C125.715 4.93789 125.448 4.01105 124.914 3.20986C124.379 2.40868 123.618 1.78817 122.628 1.34831C121.654 0.908447 120.531 0.688517 119.258 0.688517H113.202C113.092 0.688517 113.006 0.71993 112.943 0.782769C112.88 0.845608 112.849 0.93201 112.849 1.04198V16.8299C112.849 16.9399 112.88 17.0263 112.943 17.0891ZM117.397 13.3895C117.318 13.3895 117.279 13.3503 117.279 13.2717V4.60015C117.279 4.5216 117.318 4.48232 117.397 4.48232H119.4C119.965 4.48232 120.421 4.6944 120.766 5.11856C121.112 5.52699 121.285 6.06897 121.285 6.74447V11.1274C121.269 11.8029 121.088 12.3527 120.743 12.7769C120.397 13.1853 119.957 13.3895 119.423 13.3895H117.397ZM7.62351 28.5727C9.14182 28.5727 10.3726 27.3418 10.3726 25.8235C10.3726 24.3052 9.14182 23.0744 7.62351 23.0744C6.1052 23.0744 4.87436 24.3052 4.87436 25.8235C4.87436 27.3418 6.1052 28.5727 7.62351 28.5727Z" fill="#034991" fill-rule="evenodd"/>
<path clip-rule="evenodd" d="M27.5294 21.73C27.64 21.73 27.6953 21.6739 27.6953 21.5617V20.5013C27.6953 20.3891 27.64 20.333 27.5294 20.333H20.1606C20.05 20.333 19.9946 20.3891 19.9946 20.5013V31.9467C19.9946 32.0589 20.05 32.115 20.1606 32.115H21.4219C21.5326 32.115 21.5879 32.0589 21.5879 31.9467V26.9478C21.5879 26.9029 21.61 26.8805 21.6543 26.8805H25.6872C25.7978 26.8805 25.8531 26.8243 25.8531 26.7121V25.6518C25.8531 25.5395 25.7978 25.4834 25.6872 25.4834H21.6543C21.61 25.4834 21.5879 25.461 21.5879 25.4161V21.7973C21.5879 21.7525 21.61 21.73 21.6543 21.73H27.5294ZM40.0882 32.115C39.9776 32.115 39.9222 32.0589 39.9222 31.9467V20.5013C39.9222 20.3891 39.9776 20.333 40.0882 20.333H41.3495C41.4602 20.333 41.5155 20.3891 41.5155 20.5013V31.9467C41.5155 32.0589 41.4602 32.115 41.3495 32.115H40.0882ZM61.7806 20.333C61.67 20.333 61.6146 20.3891 61.6146 20.5013L61.6312 29.0349C61.6312 29.0685 61.6202 29.091 61.598 29.1022C61.5759 29.1022 61.5593 29.0854 61.5483 29.0517L56.3702 20.4508C56.3149 20.3723 56.2485 20.333 56.171 20.333H54.9429C54.8323 20.333 54.777 20.3891 54.777 20.5013V31.9467C54.777 32.0589 54.8323 32.115 54.9429 32.115H56.2042C56.3149 32.115 56.3702 32.0589 56.3702 31.9467L56.3536 23.4132C56.3536 23.3795 56.3647 23.3627 56.3868 23.3627C56.4089 23.3515 56.4255 23.3627 56.4366 23.3963L61.6312 31.9972C61.6866 32.0758 61.7529 32.115 61.8304 32.115H63.0419C63.1526 32.115 63.2079 32.0589 63.2079 31.9467V20.5013C63.2079 20.3891 63.1526 20.333 63.0419 20.333H61.7806ZM76.4751 32.115C76.3644 32.115 76.3091 32.0589 76.3091 31.9467V20.5013C76.3091 20.3891 76.3644 20.333 76.4751 20.333H80.4914C81.6421 20.333 82.5604 20.6416 83.2464 21.2587C83.9323 21.8647 84.2753 22.6782 84.2753 23.6993V28.7487C84.2753 29.7699 83.9323 30.589 83.2464 31.2061C82.5604 31.8121 81.6421 32.115 80.4914 32.115H76.4751ZM77.9023 30.6507C77.9023 30.6956 77.9245 30.718 77.9687 30.718H80.5578C81.1995 30.718 81.7084 30.5217 82.0846 30.1289C82.4719 29.725 82.671 29.1864 82.6821 28.5131V23.9349C82.6821 23.2617 82.4885 22.7287 82.1012 22.336C81.725 21.932 81.2105 21.73 80.5578 21.73H77.9687C77.9245 21.73 77.9023 21.7525 77.9023 21.7973V30.6507ZM104.663 21.73C104.774 21.73 104.829 21.6739 104.829 21.5617V20.5013C104.829 20.3891 104.774 20.333 104.663 20.333H97.2779C97.1672 20.333 97.1119 20.3891 97.1119 20.5013V31.9467C97.1119 32.0589 97.1672 32.115 97.2779 32.115H104.663C104.774 32.115 104.829 32.0589 104.829 31.9467V30.8863C104.829 30.7741 104.774 30.718 104.663 30.718H98.7715C98.7273 30.718 98.7051 30.6956 98.7051 30.6507V26.9478C98.7051 26.9029 98.7273 26.8805 98.7715 26.8805H102.821C102.932 26.8805 102.987 26.8243 102.987 26.7121V25.6518C102.987 25.5395 102.932 25.4834 102.821 25.4834H98.7715C98.7273 25.4834 98.7051 25.461 98.7051 25.4161V21.7973C98.7051 21.7525 98.7273 21.73 98.7715 21.73H104.663ZM124.014 31.9972C124.047 32.0758 124.108 32.115 124.196 32.115H125.507C125.596 32.115 125.64 32.0758 125.64 31.9972C125.64 31.9636 125.635 31.9355 125.624 31.9131L123.217 26.8636C123.195 26.83 123.206 26.8019 123.25 26.7795C123.969 26.5887 124.528 26.224 124.927 25.6854C125.336 25.1356 125.541 24.4679 125.541 23.6825C125.541 23.0204 125.402 22.4369 125.126 21.932C124.849 21.4271 124.456 21.0343 123.947 20.7538C123.449 20.4733 122.869 20.333 122.205 20.333H117.74C117.63 20.333 117.574 20.3891 117.574 20.5013V31.9467C117.574 32.0589 117.63 32.115 117.74 32.115H119.002C119.112 32.115 119.168 32.0589 119.168 31.9467V26.9814C119.168 26.9366 119.19 26.9141 119.234 26.9141H121.624C121.657 26.9141 121.679 26.9309 121.69 26.9646L124.014 31.9972ZM119.168 21.7973C119.168 21.7525 119.19 21.73 119.234 21.73H122.006C122.592 21.73 123.062 21.9096 123.416 22.2686C123.77 22.6277 123.947 23.1046 123.947 23.6993C123.947 24.2828 123.77 24.7541 123.416 25.1131C123.062 25.461 122.592 25.6349 122.006 25.6349H119.234C119.19 25.6349 119.168 25.6125 119.168 25.5676V21.7973Z" fill="#D65488" fill-rule="evenodd"/>
</svg>