<svg viewBox="0 0 162 50" fill="#00809D" xmlns="http://www.w3.org/2000/svg" class="hidden h-[2.25rem] text-primary lg:block"><path d="M32.452 18.8653C31.2165 20.2552 29.2431 20.5566 28.0591 19.5519C26.8751 18.5472 26.9093 16.6047 28.1449 15.2148C29.3804 13.825 31.3538 13.5235 32.5378 14.5283C33.7218 15.533 33.6874 17.4755 32.452 18.8653Z" class="fill-current"></path><path d="M18.2761 24.0495V16.5398C18.2761 16.4504 18.2585 16.3619 18.2243 16.2793C18.1901 16.1967 18.1399 16.1217 18.0767 16.0585C18.0135 15.9953 17.9385 15.9452 17.8559 15.911C17.7734 15.8768 17.6849 15.8592 17.5955 15.8592H14.1498C14.0605 15.8592 13.972 15.8768 13.8894 15.911C13.8068 15.9452 13.7318 15.9953 13.6686 16.0585C13.6054 16.1217 13.5553 16.1967 13.5211 16.2793C13.4868 16.3619 13.4692 16.4504 13.4692 16.5398V24.0478C15.0694 24.1635 16.6758 24.1641 18.2761 24.0495Z" class="fill-current"></path><path d="M35.1581 20.3491C35.2179 20.3932 35.2681 20.4491 35.3054 20.5134L35.8781 21.5054C35.945 21.6201 35.9767 21.752 35.9693 21.8847C35.9619 22.0173 35.9156 22.1448 35.8363 22.2514C34.9189 23.4661 33.868 24.5738 32.7032 25.5538V38.2619C32.7032 38.3513 32.6856 38.4398 32.6514 38.5223C32.6172 38.6049 32.5671 38.6799 32.5039 38.7431C32.4407 38.8063 32.3657 38.8565 32.2831 38.8907C32.2005 38.9249 32.112 38.9425 32.0226 38.9425H28.577C28.3965 38.9425 28.2234 38.8708 28.0958 38.7431C27.9681 38.6155 27.8964 38.4424 27.8964 38.2619V28.5592C24.8756 29.8985 21.5717 30.4736 18.276 30.2338V38.262C18.276 38.3514 18.2584 38.4399 18.2242 38.5224C18.19 38.605 18.1399 38.68 18.0767 38.7433C18.0135 38.8065 17.9385 38.8566 17.8559 38.8908C17.7733 38.925 17.6848 38.9426 17.5954 38.9426H14.1498C13.9693 38.9426 13.7962 38.8709 13.6685 38.7433C13.5409 38.6156 13.4692 38.4425 13.4692 38.262V29.2983C12.2666 28.9068 11.1036 28.4026 9.99579 27.7924C9.91618 27.7486 9.8461 27.6895 9.78965 27.6183C9.7332 27.5471 9.69151 27.4654 9.66702 27.378C9.64253 27.2905 9.63573 27.199 9.64702 27.1089C9.65832 27.0188 9.68748 26.9318 9.73279 26.8531L10.2572 25.9448C10.3258 25.8266 10.4284 25.7318 10.5516 25.6727C10.6748 25.6136 10.813 25.593 10.9481 25.6135C19.1921 26.842 27.5983 24.9611 34.5327 20.3365C34.5943 20.2948 34.6637 20.2663 34.7368 20.2527C34.8099 20.239 34.885 20.2405 34.9575 20.2571C35.0299 20.2737 35.0982 20.305 35.1581 20.3491Z" class="fill-current"></path><path fill-rule="evenodd" clip-rule="evenodd" d="M26.6133 0.984156L42.6541 10.2452C44.8932 11.5379 46.177 13.6866 46.1765 16.1402L46.1708 40.1068C46.1825 41.4224 45.8005 42.7115 45.0739 43.8084C44.3473 44.9052 43.3094 45.7598 42.0934 46.2622C30.3646 51.2458 15.7984 51.2457 4.08116 46.2631C2.86572 45.7604 1.8283 44.9058 1.10212 43.8091C0.375945 42.7124 -0.0058372 41.4237 0.00580256 40.1085L1.46493e-07 16.1402C-0.000500738 13.6864 1.28348 11.5379 3.52249 10.2452L19.5631 0.984156C21.8362 -0.327882 24.3399 -0.328222 26.6133 0.984156ZM42.6656 42.2146C43.0794 41.5902 43.2942 40.855 43.2815 40.106L43.2871 16.1395C43.2874 14.7054 42.5691 13.5323 41.2094 12.7473L25.1686 3.48635C23.7687 2.67803 22.4072 2.67824 21.0078 3.48635L4.96714 12.7473C3.60746 13.5323 2.88896 14.7054 2.88928 16.1395L2.8951 40.1078C2.88235 40.8566 3.09695 41.5915 3.51055 42.2158C3.92416 42.84 4.51734 43.3241 5.21179 43.6043C16.233 48.2911 29.9322 48.2902 40.9634 43.6031C41.6582 43.3231 42.2517 42.839 42.6656 42.2146Z" class="fill-current"></path><path d="M74.3036 18.2799V34.5085C74.3036 34.6817 74.2348 34.8478 74.1123 34.9703C73.9898 35.0928 73.8237 35.1616 73.6505 35.1616H70.8986C70.7254 35.1616 70.5593 35.0928 70.4368 34.9703C70.3143 34.8478 70.2455 34.6817 70.2455 34.5085V27.9725H61.779V34.5085C61.779 34.6817 61.7102 34.8478 61.5877 34.9703C61.4653 35.0928 61.2991 35.1616 61.1259 35.1616H58.3741C58.2008 35.1616 58.0347 35.0928 57.9122 34.9703C57.7898 34.8478 57.7209 34.6817 57.7209 34.5085V18.2799C57.7209 18.1067 57.7898 17.9406 57.9122 17.8181C58.0347 17.6956 58.2008 17.6268 58.3741 17.6268H61.1259C61.2991 17.6268 61.4653 17.6956 61.5877 17.8181C61.7102 17.9406 61.779 18.1067 61.779 18.2799V24.5405H70.2455V18.2799C70.2455 18.1067 70.3143 17.9406 70.4368 17.8181C70.5593 17.6956 70.7254 17.6268 70.8986 17.6268H73.6505C73.8237 17.6268 73.9898 17.6956 74.1123 17.8181C74.2348 17.9406 74.3036 18.1067 74.3036 18.2799Z" class="fill-current"></path><path fill-rule="evenodd" clip-rule="evenodd" d="M87.0023 17.3264C81.4663 17.3264 77.4082 21.1839 77.4082 26.3941C77.4082 31.6044 81.4663 35.4624 87.0023 35.4624C92.5129 35.4624 96.5965 31.6298 96.5965 26.3941C96.5965 21.159 92.5129 17.3264 87.0023 17.3264ZM87.0023 20.7833C90.1334 20.7833 92.488 23.0625 92.488 26.3941C92.488 29.7258 90.1334 32.0055 87.0023 32.0055C83.8708 32.0055 81.5162 29.7257 81.5162 26.3941C81.5162 23.0625 83.8708 20.7833 87.0023 20.7833Z" class="fill-current"></path><path d="M100.356 17.6268H103.108C103.281 17.6268 103.448 17.6956 103.57 17.8181C103.693 17.9406 103.761 18.1067 103.761 18.2799V31.8549H112.735C112.909 31.8549 113.075 31.9237 113.197 32.0462C113.32 32.1686 113.389 32.3348 113.389 32.508V34.5084C113.389 34.6816 113.32 34.8477 113.197 34.9702C113.075 35.0927 112.909 35.1615 112.735 35.1615H100.356C100.183 35.1615 100.017 35.0927 99.8947 34.9702C99.7722 34.8477 99.7034 34.6816 99.7034 34.5084V18.2799C99.7034 18.1067 99.7722 17.9406 99.8947 17.8181C100.017 17.6956 100.183 17.6268 100.356 17.6268Z" class="fill-current"></path><path d="M119.691 17.6268H116.939C116.766 17.6268 116.6 17.6956 116.477 17.8181C116.355 17.9406 116.286 18.1067 116.286 18.2799V34.5085C116.286 34.6817 116.355 34.8478 116.477 34.9703C116.6 35.0928 116.766 35.1616 116.939 35.1616H119.691C119.864 35.1616 120.03 35.0928 120.153 34.9703C120.275 34.8478 120.344 34.6817 120.344 34.5085V18.2799C120.344 18.1067 120.275 17.9406 120.153 17.8181C120.03 17.6956 119.864 17.6268 119.691 17.6268Z" class="fill-current"></path><path fill-rule="evenodd" clip-rule="evenodd" d="M124.404 18.2799C124.404 18.1067 124.473 17.9406 124.595 17.8181C124.718 17.6956 124.884 17.6268 125.057 17.6268H132.463C138.2 17.6268 141.936 21.0837 141.936 26.3942C141.936 31.7047 138.2 35.1615 132.463 35.1615H125.057C124.884 35.1615 124.718 35.0927 124.595 34.9702C124.473 34.8477 124.404 34.6816 124.404 34.5084V18.2799ZM132.295 31.8299C135.777 31.8299 137.859 29.7507 137.859 26.3941C137.859 23.0376 135.777 20.9584 132.295 20.9584H128.462V31.8299H132.295Z" class="fill-current"></path><path d="M145.04 18.2799V27.4465C145.04 32.6068 148.347 35.4624 153.332 35.4624C158.316 35.4624 161.623 32.6068 161.623 27.4465V18.2799C161.623 18.1942 161.606 18.1092 161.573 18.03C161.54 17.9508 161.492 17.8788 161.432 17.8181C161.371 17.7575 161.299 17.7094 161.22 17.6765C161.141 17.6437 161.056 17.6268 160.97 17.6268H158.268C158.095 17.6268 157.929 17.6956 157.807 17.8181C157.684 17.9406 157.615 18.1067 157.615 18.2799V27.2958C157.615 30.6274 155.837 32.0055 153.357 32.0055C150.902 32.0055 149.098 30.6274 149.098 27.2958V18.2799C149.098 18.1067 149.03 17.9406 148.907 17.8181C148.785 17.6956 148.618 17.6268 148.445 17.6268H145.693C145.52 17.6268 145.354 17.6956 145.232 17.8181C145.109 17.9406 145.04 18.1067 145.04 18.2799Z" class="fill-current"></path></svg>