<svg version="1.1" id="Layer_1" xmlns:x="ns_extend;" xmlns:i="ns_ai;" xmlns:graph="ns_graphs;" xmlns="http://www.w3.org/2000/svg" xmlns:xlink="http://www.w3.org/1999/xlink" x="0px" y="0px" viewBox="0 0 103.2 56" style="enable-background:new 0 0 103.2 56;" xml:space="preserve">
 <style type="text/css">
  .st0{fill:#612ACE;}
	.st1{fill:url(#SVGID_1_);fill-opacity:0.9;}
	.st2{fill:url(#SVGID_2_);fill-opacity:0.56;}
	.st3{fill:#262626;}
 </style>
 <metadata>
  <sfw xmlns="ns_sfw;">
   <slices>
   </slices>
   <sliceSourceBounds bottomLeftOrigin="true" height="56" width="103.2" x="417.8" y="0.5">
   </sliceSourceBounds>
  </sfw>
 </metadata>
 <g>
  <path class="st0" d="M87.4,46.1c0-1.4,1.1-2.5,2.5-2.5h10.9c1.4,0,2.5,1.1,2.5,2.5c0,1.4-1.1,2.5-2.5,2.5H89.8
		C88.5,48.5,87.4,47.4,87.4,46.1z">
  </path>
  <radialGradient id="SVGID_1_" cx="-359.4983" cy="116.197" r="0.1982" gradientTransform="matrix(-0.7319 -30.5017 -62.5 1.4996 7096.9526 -11089.9268)" gradientUnits="userSpaceOnUse">
   <stop offset="0" style="stop-color:#FFD458">
   </stop>
   <stop offset="0.986" style="stop-color:#FFD458;stop-opacity:0">
   </stop>
  </radialGradient>
  <path class="st1" d="M87.4,46.1c0-1.4,1.1-2.5,2.5-2.5h10.9c1.4,0,2.5,1.1,2.5,2.5c0,1.4-1.1,2.5-2.5,2.5H89.8
		C88.5,48.5,87.4,47.4,87.4,46.1z">
  </path>
  <radialGradient id="SVGID_2_" cx="-360.6684" cy="116.6069" r="0.1982" gradientTransform="matrix(-1.1629 -20.5437 -49.974 2.8287 5508.0723 -7689.5215)" gradientUnits="userSpaceOnUse">
   <stop offset="0" style="stop-color:#FFB4AE">
   </stop>
   <stop offset="1" style="stop-color:#FFB4AE;stop-opacity:0">
   </stop>
  </radialGradient>
  <path class="st2" d="M87.4,46.1c0-1.4,1.1-2.5,2.5-2.5h10.9c1.4,0,2.5,1.1,2.5,2.5c0,1.4-1.1,2.5-2.5,2.5H89.8
		C88.5,48.5,87.4,47.4,87.4,46.1z">
  </path>
  <path class="st3" d="M0.3,26.1c-0.2,0-0.3-0.1-0.3-0.3V1.5c0-0.1,0.1-0.3,0.2-0.3L4.6,0C4.8,0,5,0.1,5,0.3v10.2
		c1.2-1.5,2.8-2.2,4.8-2.2c1.9,0,3.4,0.6,4.7,1.9c1.3,1.3,1.9,2.8,1.9,4.7v10.8c0,0.2-0.1,0.3-0.3,0.3h-4.3c-0.2,0-0.3-0.1-0.3-0.3
		v-9.4c0-1-0.3-1.7-1-2.4c-0.6-0.6-1.4-1-2.3-1c-0.9,0-1.7,0.3-2.4,1C5.3,14.6,5,15.3,5,16.3v9.4c0,0.2-0.1,0.3-0.3,0.3H0.3z">
  </path>
  <path class="st3" d="M20.8,23.9c-1.7-1.8-2.6-3.9-2.6-6.5c0-2.6,0.9-4.7,2.6-6.5c1.7-1.8,3.9-2.6,6.6-2.6c2.6,0,4.8,0.9,6.6,2.6
		c1.8,1.7,2.6,3.9,2.6,6.5c0,2.5-0.9,4.7-2.6,6.5c-1.8,1.7-4,2.6-6.6,2.6C24.8,26.5,22.6,25.6,20.8,23.9z M27.4,21.6
		c1.1,0,2.1-0.4,2.8-1.2c0.8-0.8,1.2-1.8,1.2-3c0-1.2-0.4-2.1-1.2-2.9c-0.8-0.8-1.7-1.2-2.8-1.2c-1.1,0-2.1,0.4-2.9,1.2
		c-0.8,0.8-1.2,1.8-1.2,3c0,1.2,0.4,2.1,1.2,3C25.3,21.2,26.3,21.6,27.4,21.6z">
  </path>
  <path class="st3" d="M43.4,25.7c0,0.2-0.1,0.3-0.3,0.3h-4.3c-0.2,0-0.3-0.1-0.3-0.3V9.1c0-0.2,0.1-0.3,0.3-0.3H43
		c0.2,0,0.3,0.1,0.3,0.3v1.2c1.1-1.3,2.6-2,4.5-2c2.3,0,4,0.9,5.2,2.7c1.1-1.8,2.8-2.7,5.2-2.7c1.9,0,3.4,0.6,4.7,1.9
		c1.3,1.2,1.9,2.7,1.9,4.6v11c0,0.2-0.1,0.3-0.3,0.3h-4.3c-0.2,0-0.3-0.1-0.3-0.3v-9.6c0-0.9-0.3-1.6-0.8-2.2
		C58.5,13.3,57.9,13,57,13c-0.8,0-1.5,0.3-2.1,0.9c-0.6,0.6-0.8,1.3-0.8,2.2v9.6c0,0.2-0.1,0.3-0.3,0.3h-4.3c-0.2,0-0.3-0.1-0.3-0.3
		v-9.6c0-0.9-0.3-1.6-0.8-2.2c-0.6-0.6-1.2-0.9-2.1-0.9c-0.8,0-1.5,0.3-2.1,0.9c-0.6,0.6-0.8,1.3-0.8,2.2V25.7z">
  </path>
  <path class="st3" d="M84.7,19.2H71.9c0.3,0.9,0.8,1.6,1.6,2.2c0.8,0.6,1.6,0.8,2.6,0.8c1.3,0,2.4-0.5,3.3-1.4
		c0.1-0.1,0.2-0.1,0.3-0.1l4.2,1.1c0.2,0.1,0.3,0.3,0.2,0.5c-0.8,1.3-1.8,2.1-3.1,2.9c-1.4,0.8-3.1,1.2-4.9,1.2
		c-2.7,0-4.9-0.9-6.7-2.6c-1.8-1.7-2.7-3.9-2.7-6.5c0-2.6,0.9-4.7,2.6-6.5c1.7-1.8,3.9-2.6,6.5-2.6c2.6,0,4.7,0.9,6.5,2.6
		c1.7,1.7,2.6,3.9,2.6,6.5C84.9,18,84.8,18.6,84.7,19.2z M71.9,15.5h7.9c-0.3-0.9-0.8-1.6-1.6-2.1c-0.7-0.5-1.6-0.8-2.5-0.8
		c-0.9,0-1.7,0.3-2.4,0.8C72.7,13.9,72.2,14.6,71.9,15.5z">
  </path>
  <path class="st3" d="M11.6,28c0-0.2,0.1-0.3,0.3-0.3h4.3c0.2,0,0.3,0.1,0.3,0.3v3h3.6c0.2,0,0.3,0.1,0.3,0.3V35
		c0,0.2-0.1,0.3-0.3,0.3h-3.6v6.5c0,0.5,0.2,1,0.5,1.3c0.4,0.3,0.8,0.5,1.4,0.5h1.7c0.2,0,0.3,0.1,0.3,0.3v4c0,0.2-0.1,0.3-0.3,0.3
		h-2.5c-1.7,0-3.1-0.5-4.3-1.6c-1.1-1.1-1.7-2.4-1.7-3.9V28z">
  </path>
  <path class="st3" d="M24.1,46.1c-1.7-1.7-2.6-3.9-2.6-6.5c0-2.6,0.9-4.7,2.6-6.4c1.7-1.7,3.9-2.6,6.6-2.6c2.6,0,4.8,0.9,6.5,2.6
		c1.8,1.7,2.6,3.9,2.6,6.4c0,2.5-0.9,4.7-2.6,6.5c-1.8,1.7-3.9,2.6-6.5,2.6C28,48.6,25.8,47.8,24.1,46.1z M30.7,43.7
		c1.1,0,2.1-0.4,2.8-1.2c0.8-0.8,1.2-1.8,1.2-2.9c0-1.1-0.4-2.1-1.2-2.9c-0.7-0.8-1.7-1.2-2.8-1.2c-1.1,0-2.1,0.4-2.9,1.2
		c-0.8,0.8-1.2,1.8-1.2,2.9c0,1.1,0.4,2.1,1.2,2.9C28.6,43.3,29.5,43.7,30.7,43.7z">
  </path>
  <path class="st3" d="M47,39.6c0-2.6,0.8-4.7,2.3-6.4c1.5-1.7,3.5-2.6,5.8-2.6c1.8,0,3.4,0.5,4.8,1.6v-0.8c0-0.2,0.1-0.3,0.3-0.3
		h4.3c0.2,0,0.3,0.1,0.3,0.3v16.4c0,2.3-0.8,4.3-2.5,5.8c-1.7,1.6-3.7,2.4-6.2,2.4c-2,0-3.8-0.5-5.3-1.5c-1.5-1-2.5-2.1-3-3.5
		c-0.1-0.2,0-0.4,0.2-0.4l4.3-1.1c0.2,0,0.3,0,0.4,0.2c0.3,0.5,0.7,0.9,1.3,1.2c0.6,0.4,1.3,0.5,2.1,0.5c1.1,0,2-0.3,2.7-1
		c0.8-0.7,1.1-1.5,1.1-2.5V47c-1.4,1.1-3,1.6-4.8,1.6c-2.3,0-4.3-0.9-5.8-2.6C47.8,44.3,47,42.2,47,39.6z M56,35.5
		c-1.1,0-2,0.4-2.7,1.2c-0.7,0.8-1.1,1.8-1.1,3c0,1.1,0.4,2.1,1.1,2.9c0.8,0.8,1.7,1.2,2.7,1.2c1.1,0,2-0.4,2.7-1.2
		c0.8-0.8,1.1-1.7,1.1-2.9c0-1.2-0.4-2.2-1.1-3C58,35.9,57.1,35.5,56,35.5z">
  </path>
  <path class="st3" d="M69.3,46c-1.7-1.7-2.6-3.9-2.6-6.4s0.9-4.7,2.6-6.4c1.7-1.7,3.9-2.6,6.6-2.6c2.6,0,4.8,0.9,6.6,2.6
		c1.8,1.7,2.7,3.8,2.7,6.4c0,2.5-0.9,4.7-2.7,6.4c-1.8,1.7-4,2.6-6.6,2.6C73.2,48.6,71,47.7,69.3,46z M75.9,43.7
		c1.1,0,2.1-0.4,2.8-1.2c0.8-0.8,1.2-1.8,1.2-2.9s-0.4-2.1-1.2-2.9c-0.8-0.8-1.7-1.2-2.8-1.2c-1.1,0-2.1,0.4-2.9,1.2
		c-0.8,0.8-1.2,1.8-1.2,2.9s0.4,2.1,1.2,2.9C73.8,43.3,74.7,43.7,75.9,43.7z">
  </path>
 </g>
</svg>