<svg height="56" style="
        fill-rule: evenodd;
        clip-rule: evenodd;
        stroke-linejoin: round;
        stroke-miterlimit: 1.41421;
      " viewBox="0 0 580 170" width="170" xml:space="preserve" xmlns="http://www.w3.org/2000/svg">
<path d="M0 0h580v170H0z" style="fill: none"></path>
<path d="M107.022 150.18c0-.717.177-1.793.358-2.686l6.082-22.814h12.615l2.507-9.305h-12.619l3.495-12.975h-10.83l-3.486 12.975h-5.997l-2.504 9.305h5.991l-6.349 23.977a19.162 19.162 0 0 0-.807 5.457c0 5.638 4.204 9.306 11.81 9.306 3.312 0 6.264-.537 8.861-1.699l2.505-9.395c-2.328.985-4.744 1.522-6.891 1.522-3.133 0-4.741-1.254-4.741-3.668M163.213 115.375l-7.158 26.572c-1.88 6.979-6.891 11.811-12.977 11.811-5.191 0-8.144-2.684-8.144-7.428 0-1.342.27-3.309.63-4.742l7.067-26.213h-10.822l-6.89 25.768c-.716 2.771-1.434 5.816-1.434 8.32 0 8.678 5.64 14.137 14.402 14.137 5.996 0 10.562-3.311 14.319-7.067l-1.613 6.084h10.83l12.616-47.242h-10.826zM205.172 125.931l3.043-11.452c-8.409-.537-14.582 4.027-19.77 11.544l2.771-10.648h-10.824l-12.618 47.243h10.832l4.736-17.54c3.491-13.06 11.721-19.147 21.209-19.147h.621zM226.761 154.383c-7.069 0-11.905-5.098-11.905-11.988 0-10.022 8.323-18.701 17.003-18.701 6.71 0 11.184 4.472 11.184 11.72 0 10.469-7.427 18.969-16.282 18.969m9.123-39.994c-6.17 0-10.825 2.953-15.118 7.249l6.529-24.336h-10.826l-17.448 65.315h10.827l2.238-8.414c2.861 5.282 7.606 9.397 15.925 9.397 13.6 0 26.305-12.258 26.305-28.988 0-12.528-7.875-20.223-18.432-20.223M279.572 154.295c-7.159 0-12.077-4.564-12.077-12.527 0-8.411 6.888-17.983 16.189-17.983 7.159 0 12.081 4.563 12.081 12.526 0 8.589-7.066 17.984-16.193 17.984m4.741-39.906c-15.211 0-27.559 13.332-27.559 27.738 0 12.436 8.679 21.561 22.193 21.561 15.03 0 27.556-13.243 27.556-27.643 0-12.53-8.681-21.656-22.19-21.656" style="fill: #0069aa; fill-rule: nonzero"></path>
<path d="M323.233 147.852V124.68h12.712v-9.305h-12.712V102.4h-10.821v12.975h-5.996v9.305h5.996v24.873c0 10.379 5.633 13.867 13.598 13.867 4.026 0 7.069-.894 9.754-2.414v-8.857c-2.148 1.074-4.296 1.609-6.711 1.609-3.672 0-5.82-1.701-5.82-5.906" style="fill: #231f20; fill-rule: nonzero"></path>
<path d="M346.495 135.684c.987-7.336 5.638-12.436 12.259-12.436 7.159 0 11.275 5.459 11.99 12.436h-24.249zm12.348-21.295c-13.512 0-23.079 11.096-23.079 24.695 0 14.674 10.554 24.604 24.249 24.604 8.671 0 14.847-3.488 19.322-8.858l-6.354-5.636c-3.759 3.67-7.513 5.636-12.796 5.636-6.979 0-12.346-4.294-13.597-11.988h34.715c.086-1.074.177-1.969.177-2.951 0-13.689-7.602-25.502-22.637-25.502M410.828 114.389c-7.336 0-11.72 3.85-14.762 8.323v-7.337h-10.828v47.243h10.828v-26.666c0-7.335 4.384-11.719 10.649-11.719 6.439 0 10.107 4.203 10.107 11.541v26.844h10.829v-30.067c0-11.004-6.173-18.162-16.823-18.162M462.723 145.526c0 5.906-5.365 9.93-12.523 9.93-5.101 0-9.125-2.502-9.125-6.975v-.182c0-4.832 4.024-7.603 10.825-7.603 4.203 0 8.052.805 10.823 1.877v2.953zm-10.285-30.866c-7.695 0-12.797 1.61-17.985 3.934l2.954 8.682c4.291-1.791 8.231-2.955 13.508-2.955 7.517 0 11.63 3.58 11.63 10.111v1.162c-3.668-1.162-7.336-1.968-13.057-1.968-11.01 0-19.151 5.013-19.151 15.213v.177c0 9.483 7.873 14.584 16.821 14.584 7.155 0 12.079-2.953 15.298-6.801v5.819h10.74v-28.006c0-12.616-6.802-19.952-20.758-19.952M504.511 114.389c-7.337 0-11.723 3.85-14.765 8.323v-7.337H478.92v47.243h10.826v-26.666c0-7.335 4.384-11.719 10.649-11.719 6.442 0 10.107 4.203 10.107 11.541v26.844h10.829v-30.067c0-11.004-6.175-18.162-16.82-18.162M553.007 124.68v-9.305h-12.71V102.4h-10.823v12.975h-5.994v9.305h5.994v24.873c0 10.379 5.633 13.867 13.597 13.867 4.028 0 7.07-.894 9.755-2.414v-8.857c-2.148 1.074-4.294 1.609-6.71 1.609-3.671 0-5.819-1.701-5.819-5.906V124.68h12.71z" style="fill: #231f20; fill-rule: nonzero"></path>
<path d="m89.904 124.292 1.476-8.352H60.297l-1.482 8.396 31.089-.044zM84.05 154.571l1.472-8.355h-31.08l-1.484 8.398 31.092-.043zM86.012 139.051l1.474-8.356H24.969l-1.481 8.399 62.524-.043z" style="fill: #0069aa; fill-rule: nonzero"></path>
<path d="M344.283 24.265c0-.875.714-1.588 1.587-1.588h20.226c.876 0 1.591.713 1.591 1.588v13.888l-23.404 14.122v-28.01zm210.083 51.249L440.456 9.373c-7.169-4.162-18.337-4.067-25.429.214l-40.538 24.462v-9.784c0-4.627-3.763-8.392-8.393-8.392H345.87c-4.626 0-8.391 3.765-8.391 8.392v32.116l-31.769 19.17a4.312 4.312 0 1 0 4.455 7.384l109.317-65.964c4.412-2.661 12.188-2.727 16.643-.14l113.909 66.141a4.316 4.316 0 0 0 5.896-1.564 4.317 4.317 0 0 0-1.563-5.894" style="fill: #231f20; fill-rule: nonzero"></path>
</svg>