<svg xmlns="http://www.w3.org/2000/svg" xmlns:xlink="http://www.w3.org/1999/xlink" id="Layer_1" x="0px" y="0px" viewBox="0 0 720 108.2" style="enable-background:new 0 0 720 108.2;" xml:space="preserve"><style type="text/css">	.st0{fill:#ED1C24;}	.st1{fill:#808285;}</style><g>	<path class="st0" d="M55.5,83.3h-14c-2-4.4-2.5-7.1-2.5-12.6h-0.1c-3.2,9.3-9.6,14.1-20.4,14.1C7,84.7,0,79,0,68.3  C0,58.7,5.8,53,17,51.9l21.7-2.1v-0.2c0-5.8-3.2-9-10.3-9c-5.9,0-9.8,2.3-10.6,6.3H3C4.1,35.2,13,28,28.9,28  c16.2,0,23.8,7.5,23.8,21.5v17C52.7,74,53.5,78.6,55.5,83.3z M38.6,58.7v-0.6l-17.4,2.2c-4.4,0.6-6.7,2.4-6.7,6c0,4.1,3,6.1,8,6.1  C31.4,72.4,38.6,66.7,38.6,58.7z"></path>	<path class="st0" d="M81.2,10.6v72.7H67V10.6H81.2z"></path>	<path class="st0" d="M147.5,59.2h-40.7c0.6,8.5,5.4,13,13.6,13c5.4,0,9.6-2,11.4-6.1h14.7c-1.8,10.8-10.7,18.6-26.2,18.6  c-17.3,0-27.9-9.7-27.9-28.3c0-17.2,10.9-28.5,27.9-28.5c17,0,27,10.2,27,27.5V59.2z M107.2,50.7h25.7c-1.2-6.6-5.2-10.1-12.3-10.1  C113.8,40.6,108.8,43.9,107.2,50.7z"></path></g><g>	<g>		<path class="st1" d="M245,46.2h-6.5c0-7.5-4.8-11.4-13.9-11.4c-8.3,0-13.9,4.1-13.9,10c0,4.8,3.6,7.1,15.3,8.8   c15.3,2.2,21,6.4,21,15c0,9.6-8.1,15.8-20.7,15.8c-14.7,0-23-6.4-23-17.7h6.5c0.3,7.8,6,12.1,16.6,12.1c9.2,0,14.5-3.5,14.5-9.8   c0-5.2-3.8-7.5-15.7-9.3c-15.1-2.2-20.4-6.4-20.4-14.8c0-9,8.3-15.6,19.9-15.6C237.6,29.2,245,35.4,245,46.2z"></path>		<path class="st1" d="M261.7,56.9c0-17.8,13.1-27.7,27.4-27.7c14.2,0,27.5,9.9,27.5,27.7c0,17.9-13,27.5-27.5,27.5   C274.5,84.4,261.7,74.9,261.7,56.9z M310.1,56.9c0-13.3-8.9-21.9-21-21.9c-12.1,0-21,8.5-21,21.9s8.9,21.5,21,21.5   C301.2,78.5,310.1,70.3,310.1,56.9z"></path>		<path class="st1" d="M336.9,30.3h6.2v47.5h27.4v5.5h-33.6V30.3z"></path>		<path class="st1" d="M388.9,62.2V30.3h6.3v31.4c0,11.4,5.2,16.7,15.2,16.7c9.4,0,14.2-5.6,14.2-17V30.3h6.3v31.9   c0,14.4-8.2,22.2-20.7,22.2C396.2,84.4,388.9,76.6,388.9,62.2z"></path>		<path class="st1" d="M466.2,35.9h-17.6v-5.6H490v5.6h-17.6v47.4h-6.2V35.9z"></path>		<path class="st1" d="M509.2,30.3h6.2v53h-6.2V30.3z"></path>		<path class="st1" d="M535.8,56.9c0-17.8,13.1-27.7,27.4-27.7c14.2,0,27.5,9.9,27.5,27.7c0,17.9-13,27.5-27.5,27.5   C548.6,84.4,535.8,74.9,535.8,56.9z M584.2,56.9c0-13.3-8.9-21.9-21-21.9s-21,8.5-21,21.9s8.9,21.5,21,21.5S584.2,70.3,584.2,56.9   z"></path>		<path class="st1" d="M655.4,30.3v53h-6.2l-26.6-36.8c-2.2-2.9-4.4-6.6-6.1-10c0.3,3.4,0.5,6.9,0.5,9.8v36.9h-6.1v-53h7.8   l25.1,34.4c2,2.8,4,6.2,5.8,9.5c-0.3-3.3-0.3-6.7-0.3-9.7V30.3H655.4z"></path>		<path class="st1" d="M718,46.2h-6.5c0-7.5-4.8-11.4-13.9-11.4c-8.3,0-13.9,4.1-13.9,10c0,4.8,3.6,7.1,15.3,8.8   c15.3,2.2,21,6.4,21,15c0,9.6-8.1,15.8-20.7,15.8c-14.7,0-23-6.4-23-17.7h6.5c0.3,7.8,6,12.1,16.6,12.1c9.2,0,14.5-3.5,14.5-9.8   c0-5.2-3.8-7.5-15.7-9.3c-15.1-2.2-20.4-6.4-20.4-14.8c0-9,8.3-15.6,19.9-15.6C710.6,29.2,718,35.4,718,46.2z"></path>	</g>	<rect x="176" y="0" class="st1" width="3.4" height="108.2"></rect></g></svg>